<svg xmlns="http://www.w3.org/2000/svg" version="1.1" xmlns:xlink="http://www.w3.org/1999/xlink" xmlns:svgjs="http://svgjs.dev/svgjs" width="1000" height="623" viewBox="0 0 1000 623"><g transform="matrix(1,0,0,1,-0.6060606060606233,0.2522267206477409)"><svg viewBox="0 0 396 247" data-background-color="#ffffff" preserveAspectRatio="xMidYMid meet" height="623" width="1000" xmlns="http://www.w3.org/2000/svg" xmlns:xlink="http://www.w3.org/1999/xlink"><g id="tight-bounds" transform="matrix(1,0,0,1,0.2400000000000091,-0.09999999999999432)"><svg viewBox="0 0 395.52 247.2" height="247.2" width="395.52"><g><svg></svg></g><g><svg viewBox="0 0 395.52 247.2" height="247.2" width="395.52"><g transform="matrix(1,0,0,1,149.599495601173,47.215199999999996)"><svg viewBox="0 0 96.32100879765396 152.7696" height="152.7696" width="96.32100879765396"><g><svg viewBox="0 0 96.32100879765396 152.7696" height="152.7696" width="96.32100879765396"><g><svg viewBox="0 0 96.32100879765396 152.7696" height="152.7696" width="96.32100879765396"><g><svg viewBox="0 0 96.32100879765396 152.7696" height="152.7696" width="96.32100879765396"><g id="textblocktransform"><svg viewBox="0 0 96.32100879765396 152.7696" height="152.7696" width="96.32100879765396" id="textblock"><g><svg viewBox="0 0 96.32100879765396 152.7696" height="152.7696" width="96.32100879765396"><g transform="matrix(1,0,0,1,0,0)"><svg width="96.32100879765396" viewBox="4 -34.099998474121094 21.5 34.099998474121094" height="152.7696" data-palette-color="#ee3e38"><path d="M4 0L4-34.1 15.4-34.1Q20-34.1 22.75-31.3 25.5-28.5 25.5-23.55L25.5-23.55Q25.5-18.65 22.63-15.85 19.75-13.05 15-13.05L15-13.05 7.75-13.05 7.75 0 4 0ZM7.75-16.15L14.9-16.15Q18.25-16.15 20-18.03 21.75-19.9 21.75-23.55L21.75-23.55Q21.75-27.2 20-29.1 18.25-31 14.9-31L14.9-31 7.75-31 7.75-16.15Z" opacity="1" transform="matrix(1,0,0,1,0,0)" fill="#ee3e38" class="wordmark-text-0" data-fill-palette-color="primary" id="text-0"></path></svg></g></svg></g></svg></g></svg></g></svg></g></svg></g></svg></g><g><path d="M0 123.6c0-68.262 55.338-123.6 123.6-123.6 30.402 0 58.24 10.976 79.768 29.183l-11.147 0c-19.26-14.022-42.974-22.294-68.621-22.295-25.647 0-49.361 8.272-68.621 22.295h-6.819l0 5.361c-25.248 21.409-41.272 53.361-41.272 89.056 0 35.695 16.024 67.648 41.272 89.056v5.361l6.819 0c19.26 14.022 42.974 22.294 68.621 22.295 25.647 0 49.361-8.272 68.621-22.295l11.147 0c-21.528 18.206-49.366 29.183-79.768 29.183-68.262 0-123.6-55.338-123.6-123.6z" fill="#ee3e38" stroke="transparent" data-fill-palette-color="tertiary"></path></g></svg></g><defs></defs></svg><rect width="395.52" height="247.2" fill="none" stroke="none" visibility="hidden"></rect></g></svg></g></svg>